<?xml version="1.0" standalone="no"?>
<!DOCTYPE svg PUBLIC "-//W3C//DTD SVG 20010904//EN"
 "http://www.w3.org/TR/2001/REC-SVG-20010904/DTD/svg10.dtd">
<svg version="1.0" xmlns="http://www.w3.org/2000/svg"
 width="1080.000000pt" height="1080.000000pt" viewBox="0 0 1080.000000 1080.000000"
 preserveAspectRatio="xMidYMid meet">
<metadata>
Created by potrace 1.14, written by Peter Selinger 2001-2017
</metadata>
<g transform="translate(0.000000,1080.000000) scale(0.100000,-0.100000)"
fill="#000000" stroke="none">
<path d="M1469 9749 c-124 -13 -228 -88 -269 -195 -26 -67 -31 -167 -16 -324
5 -52 10 -108 11 -125 1 -16 5 -57 9 -90 3 -33 8 -89 11 -125 3 -36 8 -85 10
-110 2 -25 7 -72 10 -105 3 -33 8 -85 10 -115 3 -30 8 -80 10 -110 2 -30 6
-77 9 -105 4 -27 8 -75 10 -105 6 -73 16 -185 21 -240 15 -145 22 -225 30
-330 3 -36 7 -81 10 -100 2 -19 7 -69 10 -110 3 -41 8 -95 11 -120 5 -47 11
-113 19 -215 3 -33 7 -80 10 -105 5 -42 8 -76 20 -217 9 -114 17 -199 21 -228
2 -16 6 -64 9 -105 3 -41 7 -90 10 -108 4 -30 -23 -120 -55 -187 -11 -24 -97
-303 -104 -337 -2 -12 -11 -50 -19 -83 -16 -62 -21 -82 -38 -175 -11 -59 -13
-73 -29 -190 -19 -137 -25 -243 -25 -455 0 -188 9 -394 20 -435 2 -8 6 -37 10
-65 5 -42 17 -113 41 -242 17 -87 60 -251 99 -371 297 -919 948 -1701 1834
-2206 122 -70 465 -236 487 -236 3 0 24 -8 47 -19 23 -10 76 -31 117 -45 41
-15 89 -33 105 -39 17 -6 35 -12 40 -13 6 -1 48 -14 95 -29 47 -15 92 -28 100
-30 8 -2 53 -13 100 -25 47 -12 92 -23 100 -25 8 -2 51 -11 95 -20 44 -9 90
-19 103 -21 60 -11 80 -14 122 -20 25 -3 52 -7 60 -9 8 -2 40 -7 70 -10 30 -4
69 -8 85 -10 231 -27 735 -28 965 -1 19 3 60 7 91 11 31 3 65 7 75 9 11 2 41
7 67 10 55 8 53 8 197 36 115 23 268 60 370 90 36 11 68 20 72 20 21 2 304
106 410 150 122 52 334 155 418 204 25 14 56 32 70 39 14 6 36 19 50 28 14 9
70 45 125 80 93 59 274 185 285 198 3 3 25 22 50 40 204 157 556 507 649 645
8 12 19 26 25 31 19 16 166 224 166 234 0 5 4 11 9 13 18 7 178 283 253 438
77 157 172 395 202 504 8 28 22 76 31 106 19 67 19 64 44 170 11 47 22 102 26
124 3 21 7 41 9 45 2 3 6 29 10 56 3 28 8 61 10 75 36 212 43 781 11 933 -2
12 -6 42 -9 67 -11 89 -34 223 -51 290 -8 30 -16 66 -19 80 -15 78 -74 267
-127 412 -42 112 -41 102 -25 248 2 19 7 80 11 135 3 54 8 102 10 105 1 3 6
49 10 103 3 53 8 107 10 120 2 12 7 60 10 107 4 47 8 99 10 115 2 17 7 62 10
100 3 39 8 86 10 105 2 19 6 74 9 121 4 47 9 96 11 110 2 13 6 56 9 94 10 129
16 190 21 230 2 22 7 72 10 110 3 39 7 90 10 115 3 25 7 79 10 120 3 41 8 86
10 100 2 14 6 59 10 100 3 41 8 95 10 120 2 25 7 77 10 115 3 39 8 86 10 105
2 19 7 67 10 105 4 39 8 90 10 115 3 25 7 77 10 115 3 39 8 86 10 106 20 168
12 286 -22 354 -68 132 -217 198 -384 170 -50 -8 -114 -36 -294 -129 -126 -65
-297 -153 -380 -196 -82 -42 -226 -117 -320 -165 -93 -48 -255 -131 -360 -185
-235 -121 -420 -217 -635 -328 -292 -150 -340 -173 -349 -167 -8 5 -177 59
-221 70 -105 29 -249 65 -269 69 -14 3 -39 8 -56 11 -134 26 -187 35 -230 42
-27 4 -52 8 -55 8 -3 1 -36 5 -75 9 -38 4 -83 9 -100 12 -183 26 -783 26 -946
-1 -13 -2 -51 -6 -84 -10 -83 -9 -231 -32 -350 -56 -127 -26 -122 -25 -175
-39 -25 -7 -52 -13 -60 -15 -25 -5 -191 -53 -269 -78 l-74 -24 -81 41 c-45 23
-83 43 -86 46 -8 8 -99 50 -106 49 -4 0 -10 3 -13 8 -3 5 -33 23 -66 39 -95
49 -661 340 -980 504 -82 43 -217 112 -300 155 -82 42 -156 82 -162 87 -7 6
-13 7 -13 3 0 -4 -6 -2 -13 4 -13 10 -85 48 -342 179 -104 53 -182 71 -276 61z
m484 -955 c18 -9 35 -22 39 -28 4 -6 8 -7 8 -3 0 9 106 -44 153 -76 15 -10 27
-15 27 -12 0 4 15 -2 33 -13 17 -11 115 -62 217 -115 102 -52 284 -145 405
-207 121 -63 230 -118 242 -124 13 -6 23 -13 23 -16 0 -3 -23 -18 -51 -35 -67
-39 -84 -50 -171 -110 -74 -50 -269 -195 -278 -206 -3 -3 -34 -30 -70 -59
-130 -107 -455 -433 -468 -471 -5 -13 -19 -11 -19 4 -1 38 -26 320 -39 447 -3
25 -7 72 -9 105 -2 33 -7 78 -10 100 -2 22 -7 72 -10 110 -3 39 -8 88 -10 110
-2 22 -6 76 -10 120 -3 44 -8 96 -11 115 -2 19 -7 67 -10 105 -6 83 -10 128
-19 213 -3 34 -4 62 0 62 3 0 20 -7 38 -16z m6932 -46 c-11 -105 -13 -130 -19
-213 -4 -44 -9 -96 -11 -115 -2 -19 -7 -71 -10 -115 -3 -44 -8 -91 -10 -105
-2 -14 -6 -61 -10 -105 -3 -44 -7 -96 -10 -115 -4 -37 -15 -148 -20 -215 -7
-91 -17 -202 -20 -225 -2 -14 -7 -61 -10 -105 -3 -44 -8 -89 -10 -100 -2 -11
-4 -24 -4 -30 -1 -5 -18 10 -39 35 -158 191 -413 431 -627 590 -33 25 -62 48
-65 51 -3 3 -75 52 -160 108 -85 57 -156 106 -157 109 -2 4 21 18 50 32 28 13
60 31 70 39 9 8 17 10 17 5 0 -5 4 -4 8 1 7 9 60 38 367 193 72 36 132 69 133
74 2 4 11 8 21 8 9 0 21 4 27 9 5 5 70 39 144 77 74 37 138 72 142 78 4 6 8 8
8 5 0 -4 42 15 93 42 50 26 96 48 100 49 5 0 5 -28 2 -62z m-3215 -1408 c1006
-91 1887 -660 2297 -1485 99 -199 165 -400 205 -622 20 -111 23 -160 22 -373
0 -208 -4 -263 -22 -365 -123 -672 -509 -1238 -1117 -1637 -135 -89 -410 -228
-558 -283 -214 -78 -505 -148 -737 -177 -139 -17 -593 -17 -730 0 -516 64
-1001 253 -1405 547 -111 80 -137 103 -292 250 -277 264 -486 584 -613 942
-18 48 -38 115 -45 148 -8 33 -21 87 -30 120 -8 33 -19 107 -25 165 -6 58 -13
119 -15 135 -10 70 -4 340 10 449 101 768 602 1452 1359 1851 186 99 529 231
621 240 17 2 51 8 75 15 25 7 61 13 80 15 19 2 58 10 85 19 52 16 69 19 200
36 122 15 146 17 340 18 99 1 232 -3 295 -8z"/>
<path d="M5278 4297 c-123 -21 -228 -69 -293 -134 -56 -57 -77 -102 -77 -168
-1 -97 22 -154 102 -258 18 -24 67 -73 103 -103 29 -26 148 -84 170 -84 9 0
18 -4 21 -8 9 -16 170 -6 226 13 125 44 239 143 307 266 76 139 64 250 -37
347 -59 57 -154 104 -234 117 -17 3 -44 8 -61 12 -43 9 -176 9 -227 0z"/>
</g>
</svg>
